<svg width="16" height="16" viewBox="0 0 16 16" fill="none" xmlns="http://www.w3.org/2000/svg">
<path d="M14.6666 7.4445H8.55549V1.33339C8.55549 1.18605 8.49695 1.04474 8.39277 0.940551C8.28858 0.836364 8.14727 0.777832 7.99993 0.777832C7.85259 0.777832 7.71128 0.836364 7.60709 0.940551C7.50291 1.04474 7.44437 1.18605 7.44437 1.33339V7.4445H1.33326C1.18592 7.4445 1.04461 7.50303 0.940426 7.60722C0.836239 7.7114 0.777708 7.85271 0.777708 8.00005C0.774966 8.07226 0.787734 8.14421 0.81515 8.21106C0.842565 8.27791 0.883992 8.33811 0.936639 8.3876C0.989286 8.43709 1.05193 8.47471 1.12035 8.49795C1.18876 8.52118 1.26137 8.52948 1.33326 8.52228H7.44437V14.6667C7.44437 14.8141 7.50291 14.9554 7.60709 15.0596C7.71128 15.1637 7.85259 15.2223 7.99993 15.2223C8.14727 15.2223 8.28858 15.1637 8.39277 15.0596C8.49695 14.9554 8.55549 14.8141 8.55549 14.6667V8.55561H14.6666C14.8139 8.55561 14.9552 8.49708 15.0594 8.39289C15.1636 8.28871 15.2222 8.1474 15.2222 8.00005C15.2222 7.85271 15.1636 7.7114 15.0594 7.60722C14.9552 7.50303 14.8139 7.4445 14.6666 7.4445Z" fill="#514A7E"/>
</svg>
