<svg width="212" height="429" viewBox="0 0 212 429" fill="none" xmlns="http://www.w3.org/2000/svg">
<mask id="path-1-inside-1_59_52" fill="white">
<path d="M214.5 -9.37609e-06C186.331 -8.14481e-06 158.439 5.5482 132.414 16.3278C106.39 27.1075 82.7437 42.9074 62.8256 62.8256C42.9074 82.7438 27.1075 106.39 16.3278 132.414C5.54819 158.439 -1.18387e-05 186.331 -9.37609e-06 214.5C-6.91352e-06 242.669 5.5482 270.561 16.3278 296.586C27.1075 322.61 42.9074 346.256 62.8256 366.174C82.7438 386.093 106.39 401.893 132.414 412.672C158.439 423.452 186.331 429 214.5 429L214.5 214.5L214.5 -9.37609e-06Z"/>
</mask>
<path d="M214.5 -9.37609e-06C186.331 -8.14481e-06 158.439 5.5482 132.414 16.3278C106.39 27.1075 82.7437 42.9074 62.8256 62.8256C42.9074 82.7438 27.1075 106.39 16.3278 132.414C5.54819 158.439 -1.18387e-05 186.331 -9.37609e-06 214.5C-6.91352e-06 242.669 5.5482 270.561 16.3278 296.586C27.1075 322.61 42.9074 346.256 62.8256 366.174C82.7438 386.093 106.39 401.893 132.414 412.672C158.439 423.452 186.331 429 214.5 429L214.5 214.5L214.5 -9.37609e-06Z" stroke="#514A7E" stroke-width="2" mask="url(#path-1-inside-1_59_52)"/>
</svg>
