<svg width="20" height="20" viewBox="0 0 20 20" fill="none" xmlns="http://www.w3.org/2000/svg">
<path d="M9.99977 18.0166C9.87702 18.0162 9.75785 17.9752 9.66088 17.8999C6.57199 15.4999 4.44421 13.4333 2.95532 11.3944C1.05532 8.78883 0.621986 6.38328 1.66643 4.24439C2.41087 2.71661 4.54976 1.46661 7.04976 2.19439C8.24173 2.53869 9.2817 3.27705 9.99977 4.28883C10.7178 3.27705 11.7578 2.53869 12.9498 2.19439C15.4442 1.47772 17.5887 2.71661 18.3331 4.24439C19.3775 6.38328 18.9442 8.78883 17.0442 11.3944C15.5553 13.4333 13.4275 15.4999 10.3387 17.8999C10.2417 17.9752 10.1225 18.0162 9.99977 18.0166ZM5.62754 3.09994C5.03268 3.07679 4.44275 3.21608 3.92107 3.50286C3.39938 3.78964 2.96565 4.21308 2.66643 4.72772C1.80532 6.49439 2.19421 8.46105 3.85532 10.7333C5.62064 13.0103 7.68777 15.0363 9.99977 16.7555C12.3114 15.038 14.3785 13.0139 16.1442 10.7388C17.8109 8.46105 18.1942 6.49439 17.3331 4.73328C16.7775 3.62217 15.1109 2.73883 13.2553 3.26105C12.6603 3.43689 12.1088 3.73534 11.6361 4.13721C11.1634 4.53907 10.7801 5.03545 10.5109 5.59439C10.469 5.69628 10.3978 5.78343 10.3063 5.84477C10.2148 5.9061 10.1071 5.93885 9.99699 5.93885C9.88683 5.93885 9.77916 5.9061 9.68766 5.84477C9.59616 5.78343 9.52495 5.69628 9.4831 5.59439C9.21586 5.03405 8.83322 4.53652 8.36026 4.1344C7.88729 3.73228 7.33468 3.43467 6.73865 3.26105C6.37753 3.15617 6.00359 3.10195 5.62754 3.09994Z" fill="#121212"/>
</svg>
