<svg width="55" height="10" viewBox="0 0 55 10" fill="none" xmlns="http://www.w3.org/2000/svg">
<g clip-path="url(#clip0_81_2881)">
<path d="M54.4447 4.661C54.548 4.58409 54.6245 4.4768 54.6637 4.35417C54.7029 4.23154 54.7027 4.09972 54.6632 3.97719C54.6237 3.85467 54.5468 3.74759 54.4434 3.67095C54.3399 3.59432 54.2151 3.55199 54.0864 3.54988L51.5864 3.45544C51.5741 3.45459 51.5623 3.45021 51.5525 3.44281C51.5426 3.43542 51.5351 3.42534 51.5308 3.41377L50.6669 1.08044C50.6235 0.961729 50.5447 0.859223 50.4411 0.7868C50.3375 0.714378 50.2142 0.675537 50.0878 0.675537C49.9614 0.675537 49.838 0.714378 49.7344 0.7868C49.6309 0.859223 49.552 0.961729 49.5086 1.08044L48.6475 3.42211C48.6432 3.43367 48.6357 3.44376 48.6259 3.45115C48.616 3.45854 48.6042 3.46293 48.5919 3.46377L46.0919 3.55822C45.9632 3.56032 45.8384 3.60266 45.7349 3.67929C45.6315 3.75592 45.5546 3.863 45.5151 3.98553C45.4756 4.10805 45.4754 4.23987 45.5146 4.3625C45.5538 4.48513 45.6304 4.59242 45.7336 4.66933L47.6947 6.211C47.7045 6.21872 47.7119 6.22915 47.7158 6.241C47.7198 6.25285 47.7202 6.26559 47.7169 6.27766L47.0419 8.66933C47.007 8.79112 47.0104 8.92073 47.0517 9.04052C47.0929 9.16032 47.1701 9.26448 47.2727 9.33885C47.3753 9.41322 47.4983 9.45417 47.625 9.45615C47.7517 9.45812 47.876 9.42102 47.9808 9.34988L50.0531 7.961C50.0633 7.95395 50.0754 7.95017 50.0878 7.95017C50.1002 7.95017 50.1123 7.95395 50.1225 7.961L52.1947 9.34988C52.2982 9.42345 52.422 9.46298 52.5489 9.46298C52.6758 9.46298 52.7996 9.42345 52.9031 9.34988C53.0057 9.27622 53.083 9.17256 53.1242 9.05318C53.1655 8.93379 53.1688 8.80454 53.1336 8.68322L52.4531 6.28322C52.4495 6.27117 52.4497 6.2583 52.4536 6.24637C52.4576 6.23444 52.4652 6.22403 52.4753 6.21655L54.4447 4.661Z" fill="#514A7E"/>
</g>
<g clip-path="url(#clip1_81_2881)">
<path d="M24.4447 4.661C24.548 4.58409 24.6245 4.4768 24.6637 4.35417C24.7029 4.23154 24.7027 4.09972 24.6632 3.97719C24.6237 3.85467 24.5468 3.74759 24.4434 3.67095C24.3399 3.59432 24.2151 3.55199 24.0864 3.54988L21.5864 3.45544C21.5741 3.45459 21.5623 3.45021 21.5525 3.44281C21.5426 3.43542 21.5351 3.42534 21.5308 3.41377L20.6669 1.08044C20.6235 0.961729 20.5447 0.859223 20.4411 0.7868C20.3375 0.714378 20.2142 0.675537 20.0878 0.675537C19.9614 0.675537 19.838 0.714378 19.7344 0.7868C19.6309 0.859223 19.552 0.961729 19.5086 1.08044L18.6475 3.42211C18.6432 3.43367 18.6357 3.44376 18.6259 3.45115C18.616 3.45854 18.6042 3.46293 18.5919 3.46377L16.0919 3.55822C15.9632 3.56032 15.8384 3.60266 15.7349 3.67929C15.6315 3.75592 15.5546 3.863 15.5151 3.98553C15.4756 4.10805 15.4754 4.23987 15.5146 4.3625C15.5538 4.48513 15.6304 4.59242 15.7336 4.66933L17.6947 6.211C17.7045 6.21872 17.7119 6.22915 17.7158 6.241C17.7198 6.25285 17.7202 6.26559 17.7169 6.27766L17.0419 8.66933C17.007 8.79112 17.0104 8.92073 17.0517 9.04052C17.0929 9.16032 17.1701 9.26448 17.2727 9.33885C17.3753 9.41322 17.4983 9.45417 17.625 9.45615C17.7517 9.45812 17.876 9.42102 17.9808 9.34988L20.0531 7.961C20.0633 7.95395 20.0754 7.95017 20.0878 7.95017C20.1002 7.95017 20.1123 7.95395 20.1225 7.961L22.1947 9.34988C22.2982 9.42345 22.422 9.46298 22.5489 9.46298C22.6758 9.46298 22.7996 9.42345 22.9031 9.34988C23.0057 9.27622 23.083 9.17256 23.1242 9.05318C23.1655 8.93379 23.1688 8.80454 23.1336 8.68322L22.4531 6.28322C22.4495 6.27117 22.4497 6.2583 22.4536 6.24637C22.4576 6.23444 22.4652 6.22403 22.4753 6.21655L24.4447 4.661Z" fill="#514A7E"/>
</g>
<g clip-path="url(#clip2_81_2881)">
<path d="M39.4447 4.661C39.548 4.58409 39.6245 4.4768 39.6637 4.35417C39.7029 4.23154 39.7027 4.09972 39.6632 3.97719C39.6237 3.85467 39.5468 3.74759 39.4434 3.67095C39.3399 3.59432 39.2151 3.55199 39.0864 3.54988L36.5864 3.45544C36.5741 3.45459 36.5623 3.45021 36.5525 3.44281C36.5426 3.43542 36.5351 3.42534 36.5308 3.41377L35.6669 1.08044C35.6235 0.961729 35.5447 0.859223 35.4411 0.7868C35.3375 0.714378 35.2142 0.675537 35.0878 0.675537C34.9614 0.675537 34.838 0.714378 34.7344 0.7868C34.6309 0.859223 34.552 0.961729 34.5086 1.08044L33.6475 3.42211C33.6432 3.43367 33.6357 3.44376 33.6259 3.45115C33.616 3.45854 33.6042 3.46293 33.5919 3.46377L31.0919 3.55822C30.9632 3.56032 30.8384 3.60266 30.7349 3.67929C30.6315 3.75592 30.5546 3.863 30.5151 3.98553C30.4756 4.10805 30.4754 4.23987 30.5146 4.3625C30.5538 4.48513 30.6304 4.59242 30.7336 4.66933L32.6947 6.211C32.7045 6.21872 32.7119 6.22915 32.7158 6.241C32.7198 6.25285 32.7202 6.26559 32.7169 6.27766L32.0419 8.66933C32.007 8.79112 32.0104 8.92073 32.0517 9.04052C32.0929 9.16032 32.1701 9.26448 32.2727 9.33885C32.3753 9.41322 32.4983 9.45417 32.625 9.45615C32.7517 9.45812 32.876 9.42102 32.9808 9.34988L35.0531 7.961C35.0633 7.95395 35.0754 7.95017 35.0878 7.95017C35.1002 7.95017 35.1123 7.95395 35.1225 7.961L37.1947 9.34988C37.2982 9.42345 37.422 9.46298 37.5489 9.46298C37.6758 9.46298 37.7996 9.42345 37.9031 9.34988C38.0057 9.27622 38.083 9.17256 38.1242 9.05318C38.1655 8.93379 38.1688 8.80454 38.1336 8.68322L37.4531 6.28322C37.4495 6.27117 37.4497 6.2583 37.4536 6.24637C37.4576 6.23444 37.4652 6.22403 37.4753 6.21655L39.4447 4.661Z" fill="#514A7E"/>
</g>
<g clip-path="url(#clip3_81_2881)">
<path d="M9.44473 4.661C9.54797 4.58409 9.62455 4.4768 9.66373 4.35417C9.70291 4.23154 9.70274 4.09972 9.66322 3.97719C9.62371 3.85467 9.54684 3.74759 9.44339 3.67095C9.33995 3.59432 9.21511 3.55199 9.08639 3.54988L6.58639 3.45544C6.5741 3.45459 6.56232 3.45021 6.55246 3.44281C6.5426 3.43542 6.53509 3.42534 6.53084 3.41377L5.66695 1.08044C5.62354 0.961729 5.54471 0.859223 5.44112 0.7868C5.33752 0.714378 5.21418 0.675537 5.08778 0.675537C4.96138 0.675537 4.83804 0.714378 4.73445 0.7868C4.63086 0.859223 4.55202 0.961729 4.50861 1.08044L3.6475 3.42211C3.64325 3.43367 3.63574 3.44376 3.62588 3.45115C3.61602 3.45854 3.60424 3.46293 3.59195 3.46377L1.09195 3.55822C0.963227 3.56032 0.838392 3.60266 0.734946 3.67929C0.6315 3.75592 0.554631 3.863 0.515117 3.98553C0.475603 4.10805 0.475426 4.23987 0.51461 4.3625C0.553795 4.48513 0.630375 4.59242 0.733615 4.66933L2.69473 6.211C2.70454 6.21872 2.71188 6.22915 2.71583 6.241C2.71978 6.25285 2.72017 6.26559 2.71695 6.27766L2.04195 8.66933C2.00697 8.79112 2.01036 8.92073 2.05165 9.04052C2.09295 9.16032 2.17014 9.26448 2.27274 9.33885C2.37533 9.41322 2.49835 9.45417 2.62505 9.45615C2.75174 9.45812 2.87597 9.42102 2.98084 9.34988L5.05306 7.961C5.06327 7.95395 5.07538 7.95017 5.08778 7.95017C5.10019 7.95017 5.1123 7.95395 5.1225 7.961L7.19473 9.34988C7.29817 9.42345 7.42196 9.46298 7.54889 9.46298C7.67583 9.46298 7.79961 9.42345 7.90306 9.34988C8.00568 9.27622 8.08295 9.17256 8.12424 9.05318C8.16553 8.93379 8.1688 8.80454 8.13362 8.68322L7.45306 6.28322C7.44945 6.27117 7.44965 6.2583 7.45363 6.24637C7.45761 6.23444 7.46517 6.22403 7.47528 6.21655L9.44473 4.661Z" fill="#514A7E"/>
</g>
<defs>
<clipPath id="clip0_81_2881">
<rect width="10" height="10" fill="white" transform="translate(45)"/>
</clipPath>
<clipPath id="clip1_81_2881">
<rect width="10" height="10" fill="white" transform="translate(15)"/>
</clipPath>
<clipPath id="clip2_81_2881">
<rect width="10" height="10" fill="white" transform="translate(30)"/>
</clipPath>
<clipPath id="clip3_81_2881">
<rect width="10" height="10" fill="white"/>
</clipPath>
</defs>
</svg>
