<svg width="30" height="30" viewBox="0 0 30 30" fill="none" xmlns="http://www.w3.org/2000/svg">
<path d="M18.0007 24.1668C18.0007 23.9458 17.9129 23.7339 17.7566 23.5776C17.6003 23.4213 17.3883 23.3335 17.1673 23.3335H12.1673C11.9463 23.3335 11.7343 23.4213 11.5781 23.5776C11.4218 23.7339 11.334 23.9458 11.334 24.1668C11.334 24.3878 11.4218 24.5998 11.5781 24.7561C11.7343 24.9124 11.9463 25.0002 12.1673 25.0002H17.1673C17.3883 25.0002 17.6003 24.9124 17.7566 24.7561C17.9129 24.5998 18.0007 24.3878 18.0007 24.1668Z" fill="#514A7E"/>
<path d="M18.7835 20H13.7835C13.5625 20 13.3506 20.0878 13.1943 20.2441C13.038 20.4004 12.9502 20.6123 12.9502 20.8333C12.9502 21.0543 13.038 21.2663 13.1943 21.4226C13.3506 21.5789 13.5625 21.6667 13.7835 21.6667H18.7835C19.0045 21.6667 19.2165 21.5789 19.3728 21.4226C19.5291 21.2663 19.6169 21.0543 19.6169 20.8333C19.6169 20.6123 19.5291 20.4004 19.3728 20.2441C19.2165 20.0878 19.0045 20 18.7835 20Z" fill="#514A7E"/>
<path d="M18.3333 26.6665H13.3333C13.1123 26.6665 12.9004 26.7543 12.7441 26.9106C12.5878 27.0669 12.5 27.2788 12.5 27.4998C12.5 27.7209 12.5878 27.9328 12.7441 28.0891C12.9004 28.2454 13.1123 28.3332 13.3333 28.3332H18.3333C18.5543 28.3332 18.7663 28.2454 18.9226 28.0891C19.0789 27.9328 19.1667 27.7209 19.1667 27.4998C19.1667 27.2788 19.0789 27.0669 18.9226 26.9106C18.7663 26.7543 18.5543 26.6665 18.3333 26.6665Z" fill="#514A7E"/>
<path d="M27.2497 26.6665H21.4163C21.1953 26.6665 20.9834 26.7543 20.8271 26.9106C20.6708 27.0669 20.583 27.2788 20.583 27.4998C20.583 27.7209 20.6708 27.9328 20.8271 28.0891C20.9834 28.2454 21.1953 28.3332 21.4163 28.3332H27.2497C27.4707 28.3332 27.6827 28.2454 27.8389 28.0891C27.9952 27.9328 28.083 27.7209 28.083 27.4998C28.083 27.2788 27.9952 27.0669 27.8389 26.9106C27.6827 26.7543 27.4707 26.6665 27.2497 26.6665Z" fill="#514A7E"/>
<path d="M28.0827 23.3335H22.2493C22.0283 23.3335 21.8164 23.4213 21.6601 23.5776C21.5038 23.7339 21.416 23.9458 21.416 24.1668C21.416 24.3878 21.5038 24.5998 21.6601 24.7561C21.8164 24.9124 22.0283 25.0002 22.2493 25.0002H28.0827C28.3037 25.0002 28.5157 24.9124 28.6719 24.7561C28.8282 24.5998 28.916 24.3878 28.916 24.1668C28.916 23.9458 28.8282 23.7339 28.6719 23.5776C28.5157 23.4213 28.3037 23.3335 28.0827 23.3335Z" fill="#514A7E"/>
<path d="M28.1162 21.667C27.872 18.7328 27.0746 15.8713 25.7662 13.2337C24.5128 10.8501 22.7069 8.80132 20.4995 7.25866L22.4995 2.85033C22.564 2.71858 22.5926 2.57215 22.5823 2.42582C22.5721 2.2795 22.5234 2.13848 22.4412 2.01699C22.3654 1.91043 22.2655 1.82321 22.1497 1.76241C22.0338 1.7016 21.9053 1.66892 21.7745 1.66699H8.16621C8.02612 1.66665 7.88821 1.70162 7.76521 1.76869C7.64222 1.83575 7.53811 1.93274 7.46253 2.05069C7.38694 2.16864 7.34231 2.30374 7.33276 2.44351C7.3232 2.58327 7.34904 2.72319 7.40788 2.85033L9.44955 7.27533C7.25828 8.81944 5.4647 10.8615 4.21621 13.2337C2.42455 16.567 1.86621 20.642 1.71621 23.467C1.69165 23.8806 1.75302 24.2947 1.89644 24.6834C2.03986 25.0721 2.26224 25.4268 2.54955 25.7253C2.85151 26.0186 3.20906 26.2486 3.60118 26.4017C3.9933 26.5548 4.41207 26.628 4.83288 26.617H9.99955V25.0003H4.76621C4.57762 24.9997 4.39109 24.9611 4.21781 24.8866C4.04454 24.8121 3.8881 24.7034 3.75788 24.567C3.62747 24.4317 3.52675 24.2706 3.46218 24.0941C3.3976 23.9176 3.37059 23.7295 3.38288 23.542C3.49955 21.367 3.95788 17.2253 5.68288 14.0003C6.89891 11.6896 8.69707 9.7363 10.8995 8.33366H11.7329C11.1682 9.11488 10.6479 9.92727 10.1745 10.767C9.69244 11.6605 9.28279 12.5913 8.94955 13.5503L10.0912 14.317C10.4285 13.322 10.8437 12.3551 11.3329 11.4253C11.9336 10.3442 12.6161 9.31064 13.3745 8.33366H14.2079C14.7669 9.66982 15.1615 11.069 15.3829 12.5003C15.5639 13.5629 15.6531 14.6391 15.6495 15.717L16.9662 14.792C16.9295 13.9539 16.8405 13.119 16.6995 12.292C16.476 10.9405 16.1186 9.61453 15.6329 8.33366H16.2829L17.0412 6.66699H11.0079L9.46621 3.33366H20.4745L18.3912 7.89199C18.7483 8.08328 19.0909 8.30053 19.4162 8.54199C21.458 9.95066 23.1325 11.8281 24.2995 14.017C25.4684 16.4172 26.194 19.0088 26.4412 21.667H28.1162Z" fill="#514A7E"/>
</svg>
