<svg width="28" height="28" viewBox="0 0 28 28" fill="none" xmlns="http://www.w3.org/2000/svg">
<path d="M14.3494 12.5915C13.4121 12.5817 12.4987 12.2947 11.7242 11.7668C10.9497 11.2389 10.3487 10.4937 9.9968 9.62491C9.64494 8.75613 9.55798 7.80268 9.74686 6.88459C9.93575 5.9665 10.392 5.12481 11.0583 4.4655C11.7245 3.8062 12.571 3.35874 13.491 3.17948C14.411 3.00022 15.3635 3.09716 16.2285 3.45809C17.0936 3.81903 17.8325 4.42783 18.3522 5.20785C18.872 5.98786 19.1494 6.90422 19.1494 7.84154C19.1406 9.10726 18.6305 10.3179 17.7308 11.2082C16.8311 12.0985 15.6152 12.596 14.3494 12.5915ZM14.3494 4.7582C13.7418 4.76806 13.1507 4.95723 12.6502 5.30197C12.1498 5.6467 11.7624 6.13163 11.5367 6.69583C11.311 7.26003 11.257 7.87835 11.3815 8.47313C11.5061 9.06791 11.8036 9.61262 12.2368 10.0388C12.6699 10.4651 13.2193 10.7538 13.816 10.8688C14.4127 10.9837 15.0301 10.9198 15.5906 10.6851C16.1511 10.4503 16.6297 10.0551 16.9664 9.54923C17.303 9.04332 17.4827 8.44922 17.4828 7.84154C17.474 7.01784 17.1394 6.23113 16.5523 5.65335C15.9651 5.07558 15.1731 4.75375 14.3494 4.7582Z" fill="#514A7E"/>
<path d="M14.3494 12.5915C13.4121 12.5817 12.4987 12.2947 11.7242 11.7668C10.9497 11.2389 10.3487 10.4937 9.9968 9.62491C9.64494 8.75613 9.55798 7.80268 9.74686 6.88459C9.93575 5.9665 10.392 5.12481 11.0583 4.4655C11.7245 3.8062 12.571 3.35874 13.491 3.17948C14.411 3.00022 15.3635 3.09716 16.2285 3.45809C17.0936 3.81903 17.8325 4.42783 18.3522 5.20785C18.872 5.98786 19.1494 6.90422 19.1494 7.84154C19.1406 9.10726 18.6305 10.3179 17.7308 11.2082C16.8311 12.0985 15.6152 12.596 14.3494 12.5915ZM14.3494 4.7582C13.7418 4.76806 13.1507 4.95723 12.6502 5.30197C12.1498 5.6467 11.7624 6.13163 11.5367 6.69583C11.311 7.26003 11.257 7.87835 11.3815 8.47313C11.5061 9.06791 11.8036 9.61262 12.2368 10.0388C12.6699 10.4651 13.2193 10.7538 13.816 10.8688C14.4127 10.9837 15.0301 10.9198 15.5906 10.6851C16.1511 10.4503 16.6297 10.0551 16.9664 9.54923C17.303 9.04332 17.4827 8.44922 17.4828 7.84154C17.474 7.01784 17.1394 6.23113 16.5523 5.65335C15.9651 5.07558 15.1731 4.75375 14.3494 4.7582Z" fill="#514A7E"/>
<path d="M17.2583 13.7083C13.5621 13.0651 9.75696 13.6505 6.425 15.3749C6.18848 15.5063 5.99263 15.7001 5.85888 15.9353C5.72513 16.1704 5.65864 16.4378 5.66667 16.7083V19.6749C5.66667 19.8959 5.75446 20.1079 5.91074 20.2642C6.06702 20.4205 6.27899 20.5083 6.5 20.5083C6.72101 20.5083 6.93297 20.4205 7.08925 20.2642C7.24553 20.1079 7.33333 19.8959 7.33333 19.6749V16.8166C10.4231 15.2663 13.9367 14.7744 17.3333 15.4166L17.2583 13.7083Z" fill="#514A7E"/>
<path d="M26.4997 17.3333H20.9163V16.0999C20.9163 15.8789 20.8285 15.667 20.6723 15.5107C20.516 15.3544 20.304 15.2666 20.083 15.2666C19.862 15.2666 19.65 15.3544 19.4938 15.5107C19.3375 15.667 19.2497 15.8789 19.2497 16.0999V17.3333H13.1663C12.9453 17.3333 12.7334 17.4211 12.5771 17.5773C12.4208 17.7336 12.333 17.9456 12.333 18.1666V26.4999C12.333 26.7209 12.4208 26.9329 12.5771 27.0892C12.7334 27.2455 12.9453 27.3333 13.1663 27.3333H26.4997C26.7207 27.3333 26.9327 27.2455 27.0889 27.0892C27.2452 26.9329 27.333 26.7209 27.333 26.4999V18.1666C27.333 17.9456 27.2452 17.7336 27.0889 17.5773C26.9327 17.4211 26.7207 17.3333 26.4997 17.3333ZM25.6663 25.6666H13.9997V18.9999H19.2497V19.3416C19.2497 19.5626 19.3375 19.7746 19.4938 19.9309C19.65 20.0871 19.862 20.1749 20.083 20.1749C20.304 20.1749 20.516 20.0871 20.6723 19.9309C20.8285 19.7746 20.9163 19.5626 20.9163 19.3416V18.9999H25.6663V25.6666Z" fill="#514A7E"/>
<path d="M17.1758 21.8501H22.1425V23.0168H17.1758V21.8501Z" fill="#514A7E"/>
<path d="M8.03366 9.19971C5.72653 9.23831 3.45941 9.80865 1.40866 10.8664C1.18563 10.9842 0.998807 11.1604 0.868171 11.3762C0.737536 11.5919 0.667998 11.8391 0.666992 12.0914V14.6747C0.666992 14.8957 0.75479 15.1077 0.91107 15.264C1.06735 15.4202 1.27931 15.508 1.50033 15.508C1.72134 15.508 1.9333 15.4202 2.08958 15.264C2.24586 15.1077 2.33366 14.8957 2.33366 14.6747V12.258C4.29307 11.2827 6.46246 10.8048 8.65033 10.8664C8.36407 10.3441 8.15629 9.78252 8.03366 9.19971Z" fill="#514A7E"/>
<path d="M26.5915 10.8586C24.7522 9.89374 22.7308 9.32593 20.6581 9.19189C20.5361 9.77368 20.3312 10.3349 20.0498 10.8586C22.0024 10.9053 23.9204 11.3834 25.6665 12.2586V14.6752C25.6665 14.8962 25.7543 15.1082 25.9105 15.2645C26.0668 15.4208 26.2788 15.5086 26.4998 15.5086C26.7208 15.5086 26.9328 15.4208 27.0891 15.2645C27.2453 15.1082 27.3331 14.8962 27.3331 14.6752V12.0919C27.3336 11.8382 27.2648 11.5893 27.1341 11.3719C27.0034 11.1545 26.8158 10.977 26.5915 10.8586Z" fill="#514A7E"/>
<path d="M7.88399 7.84143V7.2831C7.23117 7.19574 6.63719 6.85996 6.22571 6.34568C5.81423 5.8314 5.61695 5.17823 5.67493 4.52215C5.73292 3.86607 6.0417 3.25762 6.537 2.82348C7.0323 2.38934 7.67596 2.16295 8.33399 2.19144C9.01842 2.1902 9.67627 2.45633 10.1673 2.9331C10.6006 2.57575 11.0764 2.27345 11.584 2.0331C11.017 1.38115 10.2658 0.916301 9.42931 0.699827C8.59285 0.483354 7.71043 0.525416 6.89835 0.820469C6.08628 1.11552 5.38267 1.64972 4.88026 2.35265C4.37785 3.05557 4.10023 3.89424 4.08398 4.7581C4.10147 5.8154 4.51248 6.8282 5.23674 7.59868C5.96099 8.36916 6.94646 8.84198 8.00065 8.92477C7.92996 8.56779 7.89092 8.20527 7.88399 7.84143Z" fill="#514A7E"/>
<path d="M19.6414 0.524936C19.0687 0.525062 18.5018 0.639357 17.9738 0.86114C17.4459 1.08292 16.9674 1.40774 16.5664 1.8166C17.1298 2.02074 17.6625 2.30113 18.1497 2.64994C18.5388 2.37988 18.9938 2.22046 19.4663 2.18869C19.9389 2.15692 20.4111 2.25399 20.8328 2.46954C21.2545 2.68509 21.6098 3.01104 21.8608 3.41264C22.1118 3.81424 22.2491 4.27643 22.2581 4.74994C22.2528 5.2363 22.1099 5.71123 21.846 6.11975C21.582 6.52827 21.2077 6.85367 20.7664 7.05827C20.7999 7.31524 20.8166 7.57412 20.8164 7.83327C20.8142 8.16824 20.7863 8.50255 20.7331 8.83327C21.6409 8.59988 22.4461 8.07291 23.0234 7.3344C23.6006 6.59589 23.9175 5.68725 23.9247 4.74994C23.9137 3.62269 23.4571 2.5456 22.6545 1.75397C21.8519 0.962329 20.7687 0.520479 19.6414 0.524936Z" fill="#514A7E"/>
</svg>
