<svg width="100" height="201" viewBox="0 0 100 201" fill="none" xmlns="http://www.w3.org/2000/svg">
<mask id="path-1-inside-1_211_97" fill="white">
<path d="M100.023 0.0114919C86.8908 0.00998279 73.8869 2.59507 61.7538 7.61914C49.6206 12.6432 38.5959 20.0079 29.3089 29.2927C20.022 38.5775 12.6548 49.6006 7.62793 61.7325C2.60107 73.8645 0.0130005 86.8678 0.0114919 100C0.00998336 113.132 2.59507 126.136 7.61914 138.269C12.6432 150.402 20.0079 161.427 29.2927 170.714C38.5775 180.001 49.6006 187.368 61.7325 192.395C73.8645 197.422 86.8678 200.01 100 200.011L100.011 100.011L100.023 0.0114919Z"/>
</mask>
<path d="M100.023 0.0114919C86.8908 0.00998279 73.8869 2.59507 61.7538 7.61914C49.6206 12.6432 38.5959 20.0079 29.3089 29.2927C20.022 38.5775 12.6548 49.6006 7.62793 61.7325C2.60107 73.8645 0.0130005 86.8678 0.0114919 100C0.00998336 113.132 2.59507 126.136 7.61914 138.269C12.6432 150.402 20.0079 161.427 29.2927 170.714C38.5775 180.001 49.6006 187.368 61.7325 192.395C73.8645 197.422 86.8678 200.01 100 200.011L100.011 100.011L100.023 0.0114919Z" fill="#514A7E" stroke="#514A7E" stroke-width="2" mask="url(#path-1-inside-1_211_97)"/>
</svg>
