<svg width="25" height="25" viewBox="0 0 25 25" fill="none" xmlns="http://www.w3.org/2000/svg">
<path d="M22.2219 20.1389H2.77745C2.59327 20.1389 2.41664 20.0657 2.28641 19.9355C2.15617 19.8053 2.08301 19.6286 2.08301 19.4444C2.08301 19.2603 2.15617 19.0836 2.28641 18.9534C2.41664 18.8232 2.59327 18.75 2.77745 18.75H22.2219C22.4061 18.75 22.5827 18.8232 22.7129 18.9534C22.8432 19.0836 22.9163 19.2603 22.9163 19.4444C22.9163 19.6286 22.8432 19.8053 22.7129 19.9355C22.5827 20.0657 22.4061 20.1389 22.2219 20.1389Z" fill="#FFFDF5"/>
<path d="M22.2219 13.1944H2.77745C2.59327 13.1944 2.41664 13.1213 2.28641 12.991C2.15617 12.8608 2.08301 12.6842 2.08301 12.5C2.08301 12.3158 2.15617 12.1392 2.28641 12.0089C2.41664 11.8787 2.59327 11.8055 2.77745 11.8055H22.2219C22.4061 11.8055 22.5827 11.8787 22.7129 12.0089C22.8432 12.1392 22.9163 12.3158 22.9163 12.5C22.9163 12.6842 22.8432 12.8608 22.7129 12.991C22.5827 13.1213 22.4061 13.1944 22.2219 13.1944Z" fill="#FFFDF5"/>
<path d="M22.2219 6.24997H2.77745C2.59327 6.24997 2.41664 6.17681 2.28641 6.04657C2.15617 5.91634 2.08301 5.73971 2.08301 5.55553C2.08301 5.37135 2.15617 5.19472 2.28641 5.06448C2.41664 4.93425 2.59327 4.86108 2.77745 4.86108H22.2219C22.4061 4.86108 22.5827 4.93425 22.7129 5.06448C22.8432 5.19472 22.9163 5.37135 22.9163 5.55553C22.9163 5.73971 22.8432 5.91634 22.7129 6.04657C22.5827 6.17681 22.4061 6.24997 22.2219 6.24997Z" fill="#FFFDF5"/>
</svg>
