<svg width="25" height="25" viewBox="0 0 25 25" fill="none" xmlns="http://www.w3.org/2000/svg">
<path d="M17.3617 8.33331V6.28469C17.3617 5.64632 17.2359 5.01421 16.9916 4.42443C16.7473 3.83465 16.3893 3.29877 15.9379 2.84737C15.4865 2.39597 14.9506 2.03791 14.3608 1.79361C13.771 1.54932 13.1389 1.42358 12.5005 1.42358C11.8622 1.42358 11.2301 1.54932 10.6403 1.79361C10.0505 2.03791 9.51461 2.39597 9.06322 2.84737C8.61182 3.29877 8.25375 3.83465 8.00946 4.42443C7.76517 5.01421 7.63943 5.64632 7.63943 6.28469V11.1458C7.63943 11.33 7.7126 11.5066 7.84283 11.6369C7.97306 11.7671 8.1497 11.8403 8.33388 11.8403C8.51805 11.8403 8.69469 11.7671 8.82492 11.6369C8.95515 11.5066 9.02832 11.33 9.02832 11.1458V9.72219H14.5839V8.33331H9.02832V6.28469C9.02832 5.3638 9.39414 4.48063 10.0453 3.82946C10.6965 3.1783 11.5797 2.81247 12.5005 2.81247C13.4214 2.81247 14.3046 3.1783 14.9558 3.82946C15.6069 4.48063 15.9728 5.3638 15.9728 6.28469V11.1111C15.9728 11.2953 16.0459 11.4719 16.1762 11.6021C16.3064 11.7324 16.483 11.8055 16.6672 11.8055C16.8514 11.8055 17.028 11.7324 17.1583 11.6021C17.2885 11.4719 17.3617 11.2953 17.3617 11.1111V9.72219H20.8339V22.2222H4.16721V9.72219H6.25054V8.33331H2.77832V22.2847C2.77832 22.6365 2.91806 22.9738 3.16681 23.2226C3.41556 23.4713 3.75293 23.6111 4.10471 23.6111H20.8964C21.2482 23.6111 21.5855 23.4713 21.8343 23.2226C22.083 22.9738 22.2228 22.6365 22.2228 22.2847V8.33331H17.3617Z" fill="#FFFDF5"/>
</svg>
