<svg width="25" height="25" viewBox="0 0 25 25" fill="none" xmlns="http://www.w3.org/2000/svg">
<path d="M23.4101 12.0069L12.9935 1.59025C12.8634 1.4609 12.6874 1.38831 12.5039 1.38831C12.3204 1.38831 12.1444 1.4609 12.0143 1.59025L1.59765 12.0069C1.48388 12.1398 1.42443 12.3106 1.43118 12.4854C1.43793 12.6602 1.51039 12.826 1.63406 12.9497C1.75774 13.0733 1.92353 13.1458 2.09831 13.1525C2.27308 13.1593 2.44397 13.0998 2.57681 12.9861L12.5004 3.06247L22.424 12.993C22.5569 13.1068 22.7278 13.1662 22.9025 13.1595C23.0773 13.1527 23.2431 13.0803 23.3668 12.9566C23.4905 12.8329 23.5629 12.6671 23.5697 12.4924C23.5764 12.3176 23.517 12.1467 23.4032 12.0139L23.4101 12.0069Z" fill="#FFFDF5"/>
<path d="M19.4448 22.2223H15.9725V15.2778H9.0281V22.2223H5.55588V12.5L4.16699 13.8889V22.2223C4.16699 22.5906 4.31332 22.9439 4.57379 23.2044C4.83426 23.4648 5.18752 23.6112 5.55588 23.6112H10.417V16.6667H14.5837V23.6112H19.4448C19.8131 23.6112 20.1664 23.4648 20.4269 23.2044C20.6873 22.9439 20.8337 22.5906 20.8337 22.2223V13.7223L19.4448 12.3334V22.2223Z" fill="#FFFDF5"/>
</svg>
