<svg width="25" height="25" viewBox="0 0 25 25" fill="none" xmlns="http://www.w3.org/2000/svg">
<path d="M12.5 22.5209C12.3465 22.5204 12.1976 22.4691 12.0763 22.3751C8.21523 19.3751 5.5555 16.7917 3.69439 14.2431C1.31939 10.9862 0.777726 7.97922 2.08328 5.30561C3.01384 3.39589 5.68745 1.83339 8.81245 2.74311C10.3024 3.17348 11.6024 4.09643 12.5 5.36116C13.3975 4.09643 14.6975 3.17348 16.1874 2.74311C19.3055 1.84727 21.9861 3.39589 22.9166 5.30561C24.2222 7.97922 23.6805 10.9862 21.3055 14.2431C19.4444 16.7917 16.7847 19.3751 12.9236 22.3751C12.8023 22.4691 12.6534 22.5204 12.5 22.5209ZM7.03467 3.87505C6.2911 3.84611 5.55368 4.02022 4.90158 4.3787C4.24947 4.73717 3.70731 5.26647 3.33328 5.90977C2.25689 8.11811 2.743 10.5764 4.81939 13.4167C7.02604 16.263 9.60996 18.7955 12.5 20.9445C15.3895 18.7976 17.9734 16.2674 20.1805 13.4237C22.2638 10.5764 22.743 8.11811 21.6666 5.91672C20.9722 4.52783 18.8888 3.42366 16.5694 4.07644C15.8257 4.29623 15.1362 4.6693 14.5454 5.17163C13.9545 5.67396 13.4754 6.29443 13.1388 6.99311C13.0865 7.12048 12.9975 7.22942 12.8831 7.30608C12.7688 7.38275 12.6342 7.42369 12.4965 7.42369C12.3588 7.42369 12.2242 7.38275 12.1098 7.30608C11.9954 7.22942 11.9064 7.12048 11.8541 6.99311C11.5201 6.29268 11.0418 5.67077 10.4506 5.16812C9.85936 4.66548 9.1686 4.29345 8.42356 4.07644C7.97215 3.94533 7.50473 3.87755 7.03467 3.87505Z" fill="#FFFDF5"/>
</svg>
