<svg width="24" height="21" viewBox="0 0 24 21" fill="none" xmlns="http://www.w3.org/2000/svg">
<path d="M21.199 10.6992H20.1141V18.2256L15.361 13.3877L14.4505 14.3145L19.1195 19.0736H3.10384L7.6244 14.3145L6.69446 13.4008L2.03182 18.3111V6.92611L10.059 15.0573C10.301 15.3021 10.6284 15.4396 10.9696 15.4396C11.3108 15.4396 11.6382 15.3021 11.8802 15.0573L16.1812 10.6992H14.3536L10.9696 14.1239L2.87781 5.92697H12.4033L13.1459 4.6123H2.03182C1.68927 4.6123 1.36075 4.75081 1.11853 4.99736C0.876312 5.24391 0.740234 5.5783 0.740234 5.92697V19.0736C0.740234 19.4222 0.876312 19.7566 1.11853 20.0032C1.36075 20.2497 1.68927 20.3882 2.03182 20.3882H20.1141C20.4566 20.3882 20.7851 20.2497 21.0274 20.0032C21.2696 19.7566 21.4057 19.4222 21.4057 19.0736V10.686L21.199 10.6992Z" fill="#FFFDF5"/>
<path d="M17.8581 1.18288L13.9179 7.98025C13.8425 8.1131 13.8031 8.26325 13.8037 8.41587C13.8043 8.5685 13.8449 8.71833 13.9214 8.85059C13.9979 8.98285 14.1077 9.09297 14.2399 9.17009C14.3722 9.2472 14.5224 9.28865 14.6757 9.29034H22.563C22.7162 9.28865 22.8664 9.2472 22.9987 9.17009C23.131 9.09297 23.2408 8.98285 23.3173 8.85059C23.3938 8.71833 23.4343 8.5685 23.4349 8.41587C23.4355 8.26325 23.3962 8.1131 23.3207 7.98025L19.3805 1.18288C19.3028 1.05054 19.1916 0.940764 19.0581 0.864476C18.9246 0.788188 18.7733 0.748047 18.6193 0.748047C18.4654 0.748047 18.3141 0.788188 18.1805 0.864476C18.047 0.940764 17.9358 1.05054 17.8581 1.18288Z" fill="#FFFDF5"/>
</svg>
