<svg width="21" height="21" viewBox="0 0 21 21" fill="none" xmlns="http://www.w3.org/2000/svg">
<path d="M10.5553 5.75194C9.60975 5.75194 8.68543 6.03114 7.89923 6.55422C7.11303 7.0773 6.50027 7.82077 6.13842 8.69063C5.77657 9.56048 5.6819 10.5176 5.86636 11.4411C6.05083 12.3645 6.50616 13.2127 7.17477 13.8785C7.84337 14.5442 8.69523 14.9976 9.62261 15.1813C10.55 15.365 11.5113 15.2707 12.3848 14.9104C13.2584 14.5501 14.0051 13.9399 14.5304 13.1571C15.0557 12.3743 15.3361 11.4539 15.3361 10.5124C15.3347 9.25025 14.8305 8.04025 13.9343 7.14781C13.038 6.25537 11.8228 5.75337 10.5553 5.75194ZM10.5553 14.0309C9.85642 14.0309 9.17322 13.8246 8.59212 13.4379C8.01102 13.0513 7.5581 12.5018 7.29065 11.8589C7.0232 11.2159 6.95322 10.5085 7.08956 9.82592C7.22591 9.14338 7.56246 8.51644 8.05664 8.02435C8.55083 7.53227 9.18047 7.19716 9.86592 7.0614C10.5514 6.92563 11.2619 6.99531 11.9076 7.26163C12.5533 7.52794 13.1051 7.97892 13.4934 8.55755C13.8817 9.13617 14.0889 9.81645 14.0889 10.5124C14.0879 11.4452 13.7152 12.3396 13.0528 12.9992C12.3903 13.6588 11.4922 14.0299 10.5553 14.0309ZM15.1282 0.370605H5.98236C4.49443 0.372304 3.06792 0.961616 2.01579 2.00926C0.963659 3.0569 0.371823 4.47733 0.370117 5.95892V15.0658C0.371823 16.5474 0.963659 17.9678 2.01579 19.0155C3.06792 20.0631 4.49443 20.6524 5.98236 20.6541H15.1282C16.6162 20.6524 18.0427 20.0631 19.0948 19.0155C20.1469 17.9678 20.7388 16.5474 20.7405 15.0658V5.95892C20.7388 4.47733 20.1469 3.0569 19.0948 2.00926C18.0427 0.961616 16.6162 0.372304 15.1282 0.370605ZM19.4933 15.0658C19.492 16.2182 19.0317 17.3229 18.2134 18.1378C17.3951 18.9526 16.2855 19.411 15.1282 19.4123H5.98236C4.82507 19.411 3.71554 18.9526 2.89721 18.1378C2.07888 17.3229 1.61858 16.2182 1.61728 15.0658V5.95892C1.61858 4.80656 2.07888 3.70177 2.89721 2.88692C3.71554 2.07208 4.82507 1.61374 5.98236 1.61245H15.1282C16.2855 1.61374 17.3951 2.07208 18.2134 2.88692C19.0317 3.70177 19.492 4.80656 19.4933 5.95892V15.0658ZM16.999 5.13102C16.999 5.3357 16.938 5.53578 16.8238 5.70596C16.7096 5.87615 16.5473 6.00879 16.3574 6.08712C16.1675 6.16544 15.9585 6.18594 15.7569 6.14601C15.5553 6.10608 15.3701 6.00751 15.2248 5.86279C15.0794 5.71806 14.9805 5.53366 14.9404 5.33291C14.9003 5.13217 14.9208 4.92409 14.9995 4.73499C15.0782 4.54589 15.2114 4.38427 15.3823 4.27055C15.5532 4.15684 15.7541 4.09615 15.9597 4.09615C16.2352 4.09648 16.4994 4.20561 16.6942 4.39962C16.8891 4.59362 16.9987 4.85666 16.999 5.13102Z" fill="#FFFDF5"/>
</svg>
