<svg width="18" height="18" viewBox="0 0 18 18" fill="none" xmlns="http://www.w3.org/2000/svg">
<path d="M8.99977 17.0167C8.87702 17.0163 8.75785 16.9753 8.66088 16.9C5.57199 14.5 3.44421 12.4333 1.95532 10.3944C0.0553191 7.78889 -0.378014 5.38334 0.66643 3.24445C1.41087 1.71667 3.54976 0.466672 6.04976 1.19445C7.24173 1.53875 8.2817 2.27711 8.99977 3.28889C9.71783 2.27711 10.7578 1.53875 11.9498 1.19445C14.4442 0.477783 16.5887 1.71667 17.3331 3.24445C18.3775 5.38334 17.9442 7.78889 16.0442 10.3944C14.5553 12.4333 12.4275 14.5 9.33865 16.9C9.24168 16.9753 9.12251 17.0163 8.99977 17.0167ZM4.62754 2.1C4.03268 2.07685 3.44275 2.21614 2.92107 2.50292C2.39938 2.7897 1.96565 3.21314 1.66643 3.72778C0.805319 5.49445 1.19421 7.46111 2.85532 9.73334C4.62064 12.0103 6.68777 14.0363 8.99977 15.7556C11.3114 14.038 13.3785 12.0139 15.1442 9.73889C16.8109 7.46112 17.1942 5.49445 16.3331 3.73334C15.7775 2.62223 14.1109 1.73889 12.2553 2.26112C11.6603 2.43695 11.1088 2.7354 10.6361 3.13727C10.1634 3.53913 9.78013 4.03551 9.51088 4.59445C9.46902 4.69634 9.39782 4.7835 9.30632 4.84483C9.21481 4.90616 9.10714 4.93891 8.99699 4.93891C8.88683 4.93891 8.77916 4.90616 8.68766 4.84483C8.59616 4.7835 8.52495 4.69634 8.4831 4.59445C8.21586 4.03411 7.83322 3.53658 7.36026 3.13446C6.88729 2.73234 6.33468 2.43473 5.73865 2.26112C5.37753 2.15623 5.00359 2.10201 4.62754 2.1Z" fill="#121212"/>
</svg>
