<svg width="20" height="20" viewBox="0 0 20 20" fill="none" xmlns="http://www.w3.org/2000/svg">
<path d="M10.0002 9.44447C10.7694 9.44447 11.5212 9.21639 12.1608 8.78907C12.8003 8.36175 13.2987 7.75439 13.5931 7.04379C13.8874 6.33319 13.9644 5.55126 13.8144 4.79689C13.6643 4.04252 13.2939 3.34959 12.7501 2.80572C12.2062 2.26185 11.5133 1.89147 10.7589 1.74141C10.0045 1.59136 9.22261 1.66837 8.512 1.96271C7.8014 2.25705 7.19404 2.7555 6.76672 3.39503C6.33941 4.03455 6.11133 4.78643 6.11133 5.55558C6.11133 6.58698 6.52105 7.57613 7.25036 8.30544C7.97967 9.03475 8.96882 9.44447 10.0002 9.44447ZM10.0002 2.7778C10.5496 2.7778 11.0867 2.94071 11.5435 3.24594C12.0003 3.55117 12.3563 3.985 12.5665 4.49257C12.7768 5.00014 12.8318 5.55866 12.7246 6.0975C12.6174 6.63633 12.3529 7.13128 11.9644 7.51976C11.5759 7.90824 11.081 8.1728 10.5421 8.27998C10.0033 8.38716 9.44478 8.33215 8.93721 8.12191C8.42963 7.91167 7.99581 7.55563 7.69058 7.09883C7.38535 6.64202 7.22244 6.10497 7.22244 5.55558C7.22244 4.81887 7.5151 4.11233 8.03603 3.59139C8.55697 3.07046 9.2635 2.7778 10.0002 2.7778Z" fill="#121212"/>
<path d="M16.9273 13.5389C16.0364 12.5972 14.9628 11.8472 13.7721 11.3346C12.5814 10.8219 11.2987 10.5576 10.0023 10.5576C8.70601 10.5576 7.42328 10.8219 6.2326 11.3346C5.04192 11.8472 3.96829 12.5972 3.07735 13.5389C2.88419 13.7452 2.77691 14.0174 2.77735 14.3V17.2222C2.77735 17.5169 2.89441 17.7995 3.10278 18.0079C3.31116 18.2163 3.59377 18.3333 3.88846 18.3333H16.1107C16.4054 18.3333 16.688 18.2163 16.8964 18.0079C17.1047 17.7995 17.2218 17.5169 17.2218 17.2222V14.3C17.2237 14.0181 17.1185 13.7461 16.9273 13.5389ZM16.1107 17.2222H3.88846V14.2944C4.6758 13.4654 5.62362 12.8052 6.67421 12.354C7.7248 11.9029 8.85621 11.6703 9.99957 11.6703C11.1429 11.6703 12.2743 11.9029 13.3249 12.354C14.3755 12.8052 15.3233 13.4654 16.1107 14.2944V17.2222Z" fill="#121212"/>
</svg>
