<svg width="10" height="10" viewBox="0 0 10 10" fill="none" xmlns="http://www.w3.org/2000/svg">
<path d="M8.54158 3.32869C8.48577 3.27417 8.41085 3.24365 8.33283 3.24365C8.25482 3.24365 8.1799 3.27417 8.12408 3.32869L4.99971 6.37431L1.87596 3.32869C1.82015 3.27417 1.74523 3.24365 1.66721 3.24365C1.58919 3.24365 1.51427 3.27417 1.45846 3.32869C1.43125 3.35518 1.40962 3.38686 1.39485 3.42186C1.38008 3.45685 1.37247 3.49445 1.37247 3.53244C1.37247 3.57042 1.38008 3.60802 1.39485 3.64301C1.40962 3.67801 1.43125 3.70969 1.45846 3.73619L4.78159 6.97494C4.83994 7.03182 4.91821 7.06365 4.99971 7.06365C5.08121 7.06365 5.15948 7.03182 5.21784 6.97494L8.54096 3.73619C8.56817 3.70969 8.5898 3.67801 8.60457 3.64301C8.61934 3.60802 8.62695 3.57042 8.62695 3.53244C8.62695 3.49445 8.61934 3.45685 8.60457 3.42186C8.5898 3.38686 8.56817 3.35518 8.54096 3.32869L8.54158 3.32869Z" fill="#FFFDF5" fill-opacity="0.8"/>
</svg>
