<svg width="20" height="21" viewBox="0 0 20 21" fill="none" xmlns="http://www.w3.org/2000/svg">
<g clip-path="url(#clip0_211_72)">
<path d="M10 22.3897C8.26942 22.3897 6.57769 21.8765 5.13876 20.915C3.69983 19.9535 2.57832 18.587 1.91606 16.9881C1.25379 15.3893 1.08051 13.6299 1.41813 11.9326C1.75575 10.2353 2.58911 8.67618 3.81282 7.45247C5.03653 6.22876 6.59563 5.3954 8.29296 5.05778C9.9903 4.72016 11.7496 4.89344 13.3485 5.55571C14.9473 6.21797 16.3139 7.33948 17.2754 8.77841C18.2368 10.2173 18.75 11.9091 18.75 13.6397C18.75 15.9603 17.8281 18.1859 16.1872 19.8268C14.5462 21.4678 12.3206 22.3897 10 22.3897ZM10 6.13965C8.51664 6.13965 7.0666 6.57952 5.83323 7.40363C4.59986 8.22774 3.63856 9.39908 3.07091 10.7695C2.50325 12.14 2.35473 13.648 2.64411 15.1028C2.9335 16.5577 3.64781 17.8941 4.6967 18.943C5.7456 19.9918 7.08197 20.7062 8.53683 20.9955C9.99168 21.2849 11.4997 21.1364 12.8701 20.5687C14.2406 20.0011 15.4119 19.0398 16.236 17.8064C17.0601 16.5731 17.5 15.123 17.5 13.6397C17.5 11.6505 16.7098 9.74287 15.3033 8.33635C13.8968 6.92983 11.9891 6.13965 10 6.13965Z" fill="#FFFDF5"/>
<path d="M12.8688 17.3896L9.375 13.8959V8.01465H10.625V13.3771L13.75 16.5084L12.8688 17.3896Z" fill="#FFFDF5"/>
</g>
<defs>
<clipPath id="clip0_211_72">
<rect width="20" height="19.9147" fill="white" transform="translate(0 0.377441)"/>
</clipPath>
</defs>
</svg>
