<svg width="20" height="20" viewBox="0 0 20 20" fill="none" xmlns="http://www.w3.org/2000/svg">
<path d="M9.99977 18.0167C9.87702 18.0163 9.75785 17.9753 9.66088 17.9C6.57199 15.5 4.44421 13.4333 2.95532 11.3944C1.05532 8.78889 0.621986 6.38334 1.66643 4.24445C2.41087 2.71667 4.54976 1.46667 7.04976 2.19445C8.24173 2.53875 9.2817 3.27711 9.99977 4.28889C10.7178 3.27711 11.7578 2.53875 12.9498 2.19445C15.4442 1.47778 17.5887 2.71667 18.3331 4.24445C19.3775 6.38334 18.9442 8.78889 17.0442 11.3944C15.5553 13.4333 13.4275 15.5 10.3387 17.9C10.2417 17.9753 10.1225 18.0163 9.99977 18.0167ZM5.62754 3.1C5.03268 3.07685 4.44275 3.21614 3.92107 3.50292C3.39938 3.7897 2.96565 4.21314 2.66643 4.72778C1.80532 6.49445 2.19421 8.46111 3.85532 10.7333C5.62064 13.0103 7.68777 15.0363 9.99977 16.7556C12.3114 15.038 14.3785 13.0139 16.1442 10.7389C17.8109 8.46112 18.1942 6.49445 17.3331 4.73334C16.7775 3.62223 15.1109 2.73889 13.2553 3.26112C12.6603 3.43695 12.1088 3.7354 11.6361 4.13727C11.1634 4.53913 10.7801 5.03551 10.5109 5.59445C10.469 5.69634 10.3978 5.7835 10.3063 5.84483C10.2148 5.90616 10.1071 5.93891 9.99699 5.93891C9.88683 5.93891 9.77916 5.90616 9.68766 5.84483C9.59616 5.7835 9.52495 5.69634 9.4831 5.59445C9.21586 5.03411 8.83322 4.53658 8.36026 4.13446C7.88729 3.73234 7.33468 3.43473 6.73865 3.26112C6.37753 3.15623 6.00359 3.10201 5.62754 3.1Z" fill="#121212"/>
</svg>
