<svg width="20" height="20" viewBox="0 0 20 20" fill="none" xmlns="http://www.w3.org/2000/svg">
<path d="M13.8893 6.66669V5.0278C13.8893 4.51711 13.7887 4.01141 13.5933 3.53959C13.3979 3.06777 13.1114 2.63906 12.7503 2.27795C12.3892 1.91683 11.9605 1.63037 11.4886 1.43494C11.0168 1.2395 10.5111 1.13892 10.0004 1.13892C9.48974 1.13892 8.98404 1.2395 8.51222 1.43494C8.0404 1.63037 7.61169 1.91683 7.25057 2.27795C6.88946 2.63906 6.603 3.06777 6.40757 3.53959C6.21213 4.01141 6.11154 4.51711 6.11154 5.0278V8.91669C6.11154 9.06404 6.17008 9.20534 6.27426 9.30953C6.37845 9.41372 6.51976 9.47225 6.6671 9.47225C6.81444 9.47225 6.95575 9.41372 7.05994 9.30953C7.16412 9.20534 7.22266 9.06404 7.22266 8.91669V7.7778H11.6671V6.66669H7.22266V5.0278C7.22266 4.29109 7.51531 3.58455 8.03625 3.06362C8.55718 2.54269 9.26372 2.25003 10.0004 2.25003C10.7371 2.25003 11.4437 2.54269 11.9646 3.06362C12.4856 3.58455 12.7782 4.29109 12.7782 5.0278V8.88892C12.7782 9.03626 12.8367 9.17757 12.9409 9.28175C13.0451 9.38594 13.1864 9.44447 13.3338 9.44447C13.4811 9.44447 13.6224 9.38594 13.7266 9.28175C13.8308 9.17757 13.8893 9.03626 13.8893 8.88892V7.7778H16.6671V17.7778H3.33377V7.7778H5.00043V6.66669H2.22266V17.8278C2.22266 18.1092 2.33445 18.3791 2.53345 18.5781C2.73245 18.7771 3.00234 18.8889 3.28377 18.8889H16.7171C16.9985 18.8889 17.2684 18.7771 17.4674 18.5781C17.6664 18.3791 17.7782 18.1092 17.7782 17.8278V6.66669H13.8893Z" fill="#121212"/>
</svg>
