<svg width="30" height="30" viewBox="0 0 30 30" fill="none" xmlns="http://www.w3.org/2000/svg">
<path d="M15.0833 9.16699C11.8333 9.16699 9.25 11.7503 9.25 15.0003C9.25 18.2503 11.8333 20.8337 15.0833 20.8337C18.3333 20.8337 20.9167 18.2503 20.9167 15.0003C20.9167 11.7503 18.3333 9.16699 15.0833 9.16699ZM15.0833 19.167C12.75 19.167 10.9167 17.3337 10.9167 15.0003C10.9167 12.667 12.75 10.8337 15.0833 10.8337C17.4167 10.8337 19.25 12.667 19.25 15.0003C19.25 17.3337 17.4167 19.167 15.0833 19.167Z" fill="#514A7E"/>
<path d="M27.3337 12.2503L25.0003 11.5003L24.5003 10.2503L25.667 8.08366C25.917 7.58366 25.8337 6.91699 25.417 6.50033L23.417 4.50033C23.0003 4.08366 22.3337 4.00033 21.8337 4.25033L19.667 5.41699L18.417 4.91699L17.667 2.58366C17.5003 2.08366 17.0003 1.66699 16.417 1.66699H13.5837C13.0003 1.66699 12.5003 2.08366 12.417 2.66699L11.667 5.00033C11.167 5.08366 10.7503 5.25033 10.3337 5.50033L8.16699 4.33366C7.66699 4.08366 7.00033 4.16699 6.58366 4.58366L4.58366 6.58366C4.16699 7.00033 4.08366 7.66699 4.33366 8.16699L5.41699 10.2503C5.25033 10.667 5.08366 11.167 4.91699 11.5837L2.58366 12.3337C2.08366 12.5003 1.66699 13.0003 1.66699 13.5837V16.417C1.66699 17.0003 2.08366 17.5003 2.66699 17.667L5.00033 18.417L5.50033 19.667L4.33366 21.8337C4.08366 22.3337 4.16699 23.0003 4.58366 23.417L6.58366 25.417C7.00033 25.8337 7.66699 25.917 8.16699 25.667L10.3337 24.5003L11.5837 25.0003L12.3337 27.417C12.5003 27.917 13.0003 28.3337 13.5837 28.3337H16.417C17.0003 28.3337 17.5003 27.917 17.667 27.417L18.417 25.0003L19.667 24.5003L21.8337 25.667C22.3337 25.917 23.0003 25.8337 23.417 25.417L25.417 23.417C25.8337 23.0003 25.917 22.3337 25.667 21.8337L24.5003 19.667L25.0003 18.417L27.417 17.667C27.917 17.5003 28.3337 17.0003 28.3337 16.417V13.5837C28.3337 13.0003 27.917 12.417 27.3337 12.2503ZM26.667 16.167L23.667 17.0837L23.5837 17.5003L22.8337 19.2503L22.5837 19.667L24.0837 22.417L22.417 24.0837L19.667 22.5837L19.2503 22.8337C18.667 23.167 18.0837 23.417 17.5003 23.5837L17.0837 23.667L16.167 26.667H13.8337L12.917 23.667L12.5003 23.5837L10.7503 22.8337L10.3337 22.5837L7.58366 24.0837L5.91699 22.417L7.41699 19.667L7.16699 19.2503C6.83366 18.667 6.58366 18.0837 6.41699 17.5003L6.33366 17.0837L3.33366 16.167V13.8337L6.16699 13.0003L6.33366 12.5837C6.50033 11.917 6.75033 11.3337 7.08366 10.7503L7.33366 10.3337L5.91699 7.58366L7.58366 5.91699L10.2503 7.41699L10.667 7.16699C11.2503 6.83366 11.8337 6.58366 12.5003 6.41699L12.917 6.25033L13.8337 3.33366H16.167L17.0837 6.25033L17.5003 6.41699C18.0837 6.58366 18.667 6.83366 19.2503 7.16699L19.667 7.41699L22.417 5.91699L24.0837 7.58366L22.5837 10.3337L22.8337 10.7503C23.167 11.3337 23.417 11.917 23.5837 12.5003L23.667 12.917L26.667 13.8337V16.167Z" fill="#514A7E"/>
</svg>
