<svg width="20" height="21" viewBox="0 0 20 21" fill="none" xmlns="http://www.w3.org/2000/svg">
<g clip-path="url(#clip0_211_66)">
<path d="M15 11.8127H13.75C13.7495 11.3134 13.5518 10.8348 13.2003 10.4817C12.8488 10.1287 12.3721 9.93017 11.875 9.92967V8.67432C12.7035 8.67531 13.4978 9.00628 14.0836 9.59463C14.6694 10.183 14.999 10.9807 15 11.8127Z" fill="#FFFDF5"/>
<path d="M17.5 11.8127H16.25C16.2487 10.6478 15.7873 9.53099 14.9671 8.70729C14.1469 7.88359 13.0349 7.42026 11.875 7.41893V6.16357C13.3663 6.16524 14.7961 6.76094 15.8506 7.81999C16.9052 8.87904 17.4983 10.3149 17.5 11.8127Z" fill="#FFFDF5"/>
<path d="M16.2497 21.8557H16.1434C3.86216 21.1465 2.11841 10.7396 1.87466 7.56353C1.83656 7.06562 1.99696 6.57291 2.32057 6.19377C2.64418 5.81462 3.1045 5.5801 3.60028 5.54178C3.64986 5.53802 3.69966 5.53613 3.74966 5.53613H7.04341C7.29375 5.53589 7.53841 5.61115 7.74568 5.75216C7.95294 5.89316 8.11328 6.09343 8.20591 6.32701L9.15591 8.67452C9.24738 8.90271 9.27007 9.15286 9.22118 9.39389C9.17229 9.63493 9.05397 9.85623 8.88091 10.0303L7.54966 11.3798C7.75676 12.5669 8.3224 13.6614 9.16987 14.5147C10.0173 15.3681 11.1056 15.939 12.2872 16.1501L13.6434 14.8006C13.8193 14.6288 14.0418 14.5127 14.283 14.4669C14.5241 14.4212 14.7734 14.4477 14.9997 14.5433L17.3559 15.4911C17.585 15.587 17.7804 15.7493 17.9173 15.9572C18.0542 16.1652 18.1264 16.4093 18.1247 16.6586V19.9727C18.1247 20.4721 17.9271 20.9511 17.5755 21.3042C17.2239 21.6573 16.7469 21.8557 16.2497 21.8557ZM3.74966 6.79149C3.66758 6.79124 3.58626 6.80723 3.51034 6.83854C3.43441 6.86986 3.36538 6.91589 3.30716 6.974C3.24895 7.03211 3.20271 7.10116 3.17107 7.17722C3.13944 7.25328 3.12303 7.33485 3.12278 7.41728C3.12278 7.43486 3.12341 7.45222 3.12466 7.46938C3.41216 11.1852 5.25591 19.9727 16.2122 20.6004C16.3776 20.6103 16.5402 20.5539 16.6642 20.4435C16.7882 20.3331 16.8634 20.1777 16.8734 20.0116L16.8747 19.9727V16.6586L14.5184 15.7108L12.7247 17.4997L12.4247 17.462C6.98716 16.7778 6.24966 11.317 6.24966 11.2605L6.21216 10.9593L7.98716 9.15783L7.04966 6.79149H3.74966Z" fill="#FFFDF5"/>
</g>
<defs>
<clipPath id="clip0_211_66">
<rect width="20" height="20" fill="white" transform="translate(0 0.547852)"/>
</clipPath>
</defs>
</svg>
