<svg width="20" height="20" viewBox="0 0 20 20" fill="none" xmlns="http://www.w3.org/2000/svg">
<path d="M9.07184 2.80558C10.2752 2.80448 11.4519 3.16032 12.4531 3.8281C13.4542 4.49588 14.2348 5.44558 14.6961 6.55707C15.1573 7.66855 15.2786 8.89188 15.0445 10.0723C14.8104 11.2527 14.2315 12.3372 13.3809 13.1885C12.5304 14.0398 11.4464 14.6198 10.2662 14.8549C9.08603 15.0901 7.86259 14.97 6.75068 14.5097C5.63878 14.0494 4.68836 13.2697 4.01967 12.2692C3.35098 11.2687 2.99406 10.0923 2.99406 8.88891C3.00135 7.27872 3.64385 5.73647 4.78192 4.59736C5.91999 3.45825 7.46165 2.81434 9.07184 2.80558ZM9.07184 1.66669C7.64341 1.66669 6.24707 2.09026 5.05938 2.88385C3.87169 3.67744 2.946 4.8054 2.39937 6.12508C1.85274 7.44477 1.70971 8.89692 1.98839 10.2979C2.26706 11.6989 2.95491 12.9857 3.96495 13.9958C4.975 15.0058 6.26188 15.6937 7.66285 15.9724C9.06382 16.251 10.516 16.108 11.8357 15.5614C13.1553 15.0147 14.2833 14.089 15.0769 12.9014C15.8705 11.7137 16.2941 10.3173 16.2941 8.88891C16.2941 6.97346 15.5331 5.13646 14.1787 3.78203C12.8243 2.4276 10.9873 1.66669 9.07184 1.66669Z" fill="#121212"/>
<path d="M19.4449 18.4945L15.3504 14.3723L14.5615 15.1556L18.656 19.2778C18.7074 19.3296 18.7685 19.3708 18.8359 19.3989C18.9032 19.4271 18.9755 19.4417 19.0484 19.442C19.1214 19.4423 19.1938 19.4281 19.2613 19.4004C19.3289 19.3727 19.3903 19.332 19.4421 19.2806C19.4939 19.2291 19.535 19.168 19.5632 19.1007C19.5914 19.0333 19.606 18.9611 19.6063 18.8881C19.6065 18.8151 19.5924 18.7428 19.5647 18.6752C19.537 18.6077 19.4963 18.5463 19.4449 18.4945Z" fill="#121212"/>
</svg>
