<svg width="21" height="22" viewBox="0 0 21 22" fill="none" xmlns="http://www.w3.org/2000/svg">
<path d="M18.2586 21.6544H2.98087C2.27798 21.6544 1.67788 21.3969 1.18056 20.8819C0.683232 20.3669 0.43457 19.7454 0.43457 19.0176V3.19643C0.43457 2.46854 0.683232 1.8471 1.18056 1.33209C1.67788 0.817076 2.27798 0.55957 2.98087 0.55957H18.2586C18.9615 0.55957 19.5616 0.817076 20.059 1.33209C20.5563 1.8471 20.8049 2.46854 20.8049 3.19643V19.0176C20.8049 19.7454 20.5563 20.3669 20.059 20.8819C19.5616 21.3969 18.9615 21.6544 18.2586 21.6544ZM6.80031 8.47014V6.4925C6.80031 6.12169 6.6909 5.75775 6.47208 5.40067C6.25326 5.0436 6.01122 4.78953 5.74599 4.63846C5.48075 4.48739 5.27519 4.48052 5.1293 4.61786L3.67712 6.14229C3.27926 6.5543 3.05381 7.10707 3.00076 7.80062C2.94771 8.49417 3.05049 9.24952 3.3091 10.0667C3.56771 10.8838 3.98214 11.749 4.55241 12.6623C5.12267 13.5756 5.80566 14.4443 6.60138 15.2683C7.3971 16.0923 8.23592 16.7996 9.11784 17.3901C9.99976 17.9807 10.8353 18.4133 11.6243 18.688C12.4134 18.9626 13.1428 19.0725 13.8126 19.0176C14.4823 18.9626 15.0161 18.7292 15.414 18.3171L16.886 16.7927C17.0187 16.6554 17.012 16.4459 16.8661 16.1644C16.7203 15.8829 16.4749 15.6288 16.1301 15.4022C15.7853 15.1756 15.4338 15.0623 15.0758 15.0623H13.1661L11.873 15.8863C11.2762 15.7215 10.5402 15.2751 9.6649 14.5473C8.78961 13.8194 8.00052 13.0022 7.29763 12.0958C6.59475 11.1894 6.16374 10.4272 6.00459 9.80916L6.80031 8.47014ZM14.3994 11.7662L15.6925 11.9928C15.5864 10.3448 14.9697 8.93708 13.8424 7.76972C12.7151 6.60236 11.3624 5.96375 9.78425 5.85388L9.98318 7.19291C11.137 7.34398 12.125 7.84526 12.9472 8.69674C13.7695 9.54823 14.2535 10.5714 14.3994 11.7662ZM10.2219 8.57314L10.4606 10.0564C10.9778 10.3173 11.3691 10.7225 11.6343 11.2718L13.0666 11.519C12.8942 10.7911 12.5527 10.1628 12.0421 9.63406C11.5315 9.10532 10.9248 8.75168 10.2219 8.57314ZM9.34661 3.19643L9.56543 4.53545C10.8916 4.56292 12.115 4.92343 13.2357 5.61698C14.3563 6.31052 15.2515 7.23754 15.9212 8.39804C16.591 9.55853 16.9391 10.8255 16.9656 12.1988L18.2586 12.4254C18.2586 11.1757 18.0232 9.98083 17.5524 8.84094C17.0816 7.70105 16.4484 6.7191 15.6527 5.89508C14.857 5.07106 13.9087 4.41528 12.808 3.92774C11.7072 3.4402 10.5534 3.19643 9.34661 3.19643Z" fill="#FFFDF5"/>
</svg>
