<svg width="30" height="30" viewBox="0 0 30 30" fill="none" xmlns="http://www.w3.org/2000/svg">
<path d="M12.5 6.6665H20V8.33317H12.5V6.6665Z" fill="#514A7E"/>
<path d="M12.5 10H20V11.6667H12.5V10Z" fill="#514A7E"/>
<path d="M12.5 13.333H20V14.9997H12.5V13.333Z" fill="#514A7E"/>
<path d="M12.5 16.667H20V18.3337H12.5V16.667Z" fill="#514A7E"/>
<path d="M12.5 20H20V21.6667H12.5V20Z" fill="#514A7E"/>
<path d="M9.16699 6.6665H10.8337V8.33317H9.16699V6.6665Z" fill="#514A7E"/>
<path d="M9.16699 10H10.8337V11.6667H9.16699V10Z" fill="#514A7E"/>
<path d="M9.16699 13.333H10.8337V14.9997H9.16699V13.333Z" fill="#514A7E"/>
<path d="M9.16699 16.667H10.8337V18.3337H9.16699V16.667Z" fill="#514A7E"/>
<path d="M9.16699 20H10.8337V21.6667H9.16699V20Z" fill="#514A7E"/>
<path d="M23.3333 1.66699H6.66667C6.22464 1.66699 5.80072 1.84259 5.48816 2.15515C5.17559 2.46771 5 2.89163 5 3.33366V26.667C5 27.109 5.17559 27.5329 5.48816 27.8455C5.80072 28.1581 6.22464 28.3337 6.66667 28.3337H23.3333C23.7754 28.3337 24.1993 28.1581 24.5118 27.8455C24.8244 27.5329 25 27.109 25 26.667V3.33366C25 2.89163 24.8244 2.46771 24.5118 2.15515C24.1993 1.84259 23.7754 1.66699 23.3333 1.66699ZM23.3333 26.667H6.66667V3.33366H23.3333V26.667Z" fill="#514A7E"/>
</svg>
