<svg width="30" height="30" viewBox="0 0 30 30" fill="none" xmlns="http://www.w3.org/2000/svg">
<path d="M15.3494 13.5915C14.4121 13.5817 13.4987 13.2947 12.7242 12.7668C11.9497 12.2389 11.3487 11.4937 10.9968 10.6249C10.6449 9.75613 10.558 8.80268 10.7469 7.88459C10.9358 6.9665 11.392 6.12481 12.0583 5.4655C12.7245 4.8062 13.571 4.35874 14.491 4.17948C15.411 4.00022 16.3635 4.09716 17.2285 4.45809C18.0936 4.81903 18.8325 5.42783 19.3522 6.20785C19.872 6.98786 20.1494 7.90422 20.1494 8.84154C20.1406 10.1073 19.6305 11.3179 18.7308 12.2082C17.8311 13.0985 16.6152 13.596 15.3494 13.5915ZM15.3494 5.7582C14.7418 5.76806 14.1507 5.95723 13.6502 6.30197C13.1498 6.6467 12.7624 7.13163 12.5367 7.69583C12.311 8.26003 12.257 8.87835 12.3815 9.47313C12.5061 10.0679 12.8036 10.6126 13.2368 11.0388C13.6699 11.4651 14.2193 11.7538 14.816 11.8688C15.4127 11.9837 16.0301 11.9198 16.5906 11.6851C17.1511 11.4503 17.6297 11.0551 17.9664 10.5492C18.303 10.0433 18.4827 9.44922 18.4828 8.84154C18.474 8.01784 18.1394 7.23113 17.5523 6.65335C16.9651 6.07558 16.1731 5.75375 15.3494 5.7582Z" fill="#514A7E"/>
<path d="M15.3494 13.5915C14.4121 13.5817 13.4987 13.2947 12.7242 12.7668C11.9497 12.2389 11.3487 11.4937 10.9968 10.6249C10.6449 9.75613 10.558 8.80268 10.7469 7.88459C10.9358 6.9665 11.392 6.12481 12.0583 5.4655C12.7245 4.8062 13.571 4.35874 14.491 4.17948C15.411 4.00022 16.3635 4.09716 17.2285 4.45809C18.0936 4.81903 18.8325 5.42783 19.3522 6.20785C19.872 6.98786 20.1494 7.90422 20.1494 8.84154C20.1406 10.1073 19.6305 11.3179 18.7308 12.2082C17.8311 13.0985 16.6152 13.596 15.3494 13.5915ZM15.3494 5.7582C14.7418 5.76806 14.1507 5.95723 13.6502 6.30197C13.1498 6.6467 12.7624 7.13163 12.5367 7.69583C12.311 8.26003 12.257 8.87835 12.3815 9.47313C12.5061 10.0679 12.8036 10.6126 13.2368 11.0388C13.6699 11.4651 14.2193 11.7538 14.816 11.8688C15.4127 11.9837 16.0301 11.9198 16.5906 11.6851C17.1511 11.4503 17.6297 11.0551 17.9664 10.5492C18.303 10.0433 18.4827 9.44922 18.4828 8.84154C18.474 8.01784 18.1394 7.23113 17.5523 6.65335C16.9651 6.07558 16.1731 5.75375 15.3494 5.7582Z" fill="#514A7E"/>
<path d="M18.2583 14.7083C14.5621 14.0651 10.757 14.6505 7.425 16.3749C7.18848 16.5063 6.99263 16.7001 6.85888 16.9353C6.72513 17.1704 6.65864 17.4378 6.66667 17.7083V20.6749C6.66667 20.8959 6.75446 21.1079 6.91074 21.2642C7.06702 21.4205 7.27899 21.5083 7.5 21.5083C7.72101 21.5083 7.93297 21.4205 8.08925 21.2642C8.24553 21.1079 8.33333 20.8959 8.33333 20.6749V17.8166C11.4231 16.2663 14.9367 15.7744 18.3333 16.4166L18.2583 14.7083Z" fill="#514A7E"/>
<path d="M27.4997 18.3333H21.9163V17.0999C21.9163 16.8789 21.8285 16.667 21.6723 16.5107C21.516 16.3544 21.304 16.2666 21.083 16.2666C20.862 16.2666 20.65 16.3544 20.4938 16.5107C20.3375 16.667 20.2497 16.8789 20.2497 17.0999V18.3333H14.1663C13.9453 18.3333 13.7334 18.4211 13.5771 18.5773C13.4208 18.7336 13.333 18.9456 13.333 19.1666V27.4999C13.333 27.7209 13.4208 27.9329 13.5771 28.0892C13.7334 28.2455 13.9453 28.3333 14.1663 28.3333H27.4997C27.7207 28.3333 27.9327 28.2455 28.0889 28.0892C28.2452 27.9329 28.333 27.7209 28.333 27.4999V19.1666C28.333 18.9456 28.2452 18.7336 28.0889 18.5773C27.9327 18.4211 27.7207 18.3333 27.4997 18.3333ZM26.6663 26.6666H14.9997V19.9999H20.2497V20.3416C20.2497 20.5626 20.3375 20.7746 20.4938 20.9309C20.65 21.0871 20.862 21.1749 21.083 21.1749C21.304 21.1749 21.516 21.0871 21.6723 20.9309C21.8285 20.7746 21.9163 20.5626 21.9163 20.3416V19.9999H26.6663V26.6666Z" fill="#514A7E"/>
<path d="M18.1758 22.8501H23.1425V24.0168H18.1758V22.8501Z" fill="#514A7E"/>
<path d="M9.03366 10.1997C6.72653 10.2383 4.45941 10.8087 2.40866 11.8664C2.18563 11.9842 1.99881 12.1604 1.86817 12.3762C1.73754 12.5919 1.668 12.8391 1.66699 13.0914V15.6747C1.66699 15.8957 1.75479 16.1077 1.91107 16.264C2.06735 16.4202 2.27931 16.508 2.50033 16.508C2.72134 16.508 2.9333 16.4202 3.08958 16.264C3.24586 16.1077 3.33366 15.8957 3.33366 15.6747V13.258C5.29307 12.2827 7.46246 11.8048 9.65033 11.8664C9.36407 11.3441 9.15629 10.7825 9.03366 10.1997Z" fill="#514A7E"/>
<path d="M27.5915 11.8586C25.7522 10.8937 23.7308 10.3259 21.6581 10.1919C21.5361 10.7737 21.3312 11.3349 21.0498 11.8586C23.0024 11.9053 24.9204 12.3834 26.6665 13.2586V15.6752C26.6665 15.8962 26.7543 16.1082 26.9105 16.2645C27.0668 16.4208 27.2788 16.5086 27.4998 16.5086C27.7208 16.5086 27.9328 16.4208 28.0891 16.2645C28.2453 16.1082 28.3331 15.8962 28.3331 15.6752V13.0919C28.3336 12.8382 28.2648 12.5893 28.1341 12.3719C28.0034 12.1545 27.8158 11.977 27.5915 11.8586Z" fill="#514A7E"/>
<path d="M8.88399 8.84143V8.2831C8.23117 8.19574 7.63719 7.85996 7.22571 7.34568C6.81423 6.8314 6.61695 6.17823 6.67493 5.52215C6.73292 4.86607 7.0417 4.25762 7.537 3.82348C8.0323 3.38934 8.67596 3.16295 9.33399 3.19144C10.0184 3.1902 10.6763 3.45633 11.1673 3.9331C11.6006 3.57575 12.0764 3.27345 12.584 3.0331C12.017 2.38115 11.2658 1.9163 10.4293 1.69983C9.59285 1.48335 8.71043 1.52542 7.89835 1.82047C7.08628 2.11552 6.38267 2.64972 5.88026 3.35265C5.37785 4.05557 5.10023 4.89424 5.08398 5.7581C5.10147 6.8154 5.51248 7.8282 6.23674 8.59868C6.96099 9.36916 7.94646 9.84198 9.00065 9.92477C8.92996 9.56779 8.89092 9.20527 8.88399 8.84143Z" fill="#514A7E"/>
<path d="M20.6414 1.52494C20.0687 1.52506 19.5018 1.63936 18.9738 1.86114C18.4459 2.08292 17.9674 2.40774 17.5664 2.8166C18.1298 3.02074 18.6625 3.30113 19.1497 3.64994C19.5388 3.37988 19.9938 3.22046 20.4663 3.18869C20.9389 3.15692 21.4111 3.25399 21.8328 3.46954C22.2545 3.68509 22.6098 4.01104 22.8608 4.41264C23.1118 4.81424 23.2491 5.27643 23.2581 5.74994C23.2528 6.2363 23.1099 6.71123 22.846 7.11975C22.582 7.52827 22.2077 7.85367 21.7664 8.05827C21.7999 8.31524 21.8166 8.57412 21.8164 8.83327C21.8142 9.16824 21.7863 9.50255 21.7331 9.83327C22.6409 9.59988 23.4461 9.07291 24.0234 8.3344C24.6006 7.59589 24.9175 6.68725 24.9247 5.74994C24.9137 4.62269 24.4571 3.5456 23.6545 2.75397C22.8519 1.96233 21.7687 1.52048 20.6414 1.52494Z" fill="#514A7E"/>
</svg>
