<svg width="25" height="25" viewBox="0 0 25 25" fill="none" xmlns="http://www.w3.org/2000/svg">
<path d="M13.5287 12.5957L19.0161 7.1082C19.1246 6.98157 19.1812 6.81868 19.1748 6.65208C19.1684 6.48549 19.0993 6.32746 18.9814 6.20957C18.8635 6.09168 18.7055 6.02262 18.5389 6.01619C18.3723 6.00975 18.2094 6.06642 18.0828 6.17486L12.5953 11.6623L7.10785 6.16824C6.98321 6.0436 6.81415 5.97357 6.63788 5.97357C6.4616 5.97357 6.29255 6.0436 6.1679 6.16824C6.04325 6.29289 5.97323 6.46194 5.97323 6.63822C5.97323 6.81449 6.04325 6.98355 6.1679 7.1082L11.662 12.5957L6.1679 18.0831C6.09861 18.1425 6.04233 18.2155 6.0026 18.2976C5.96287 18.3797 5.94054 18.4692 5.93702 18.5604C5.9335 18.6515 5.94886 18.7424 5.98213 18.8274C6.01541 18.9123 6.06589 18.9895 6.1304 19.054C6.19491 19.1185 6.27206 19.169 6.357 19.2022C6.44194 19.2355 6.53285 19.2509 6.62401 19.2474C6.71517 19.2438 6.80462 19.2215 6.88674 19.1818C6.96887 19.142 7.04189 19.0858 7.10123 19.0165L12.5953 13.529L18.0828 19.0165C18.2094 19.1249 18.3723 19.1816 18.5389 19.1751C18.7055 19.1687 18.8635 19.0996 18.9814 18.9818C19.0993 18.8639 19.1684 18.7058 19.1748 18.5392C19.1812 18.3727 19.1246 18.2098 19.0161 18.0831L13.5287 12.5957Z" fill="#FFFDF5"/>
</svg>
