<svg width="42" height="42" viewBox="0 0 42 42" fill="none" xmlns="http://www.w3.org/2000/svg">
<path d="M20.9996 3.34723C10.9546 3.34723 2.77734 10.4995 2.77734 19.2917C2.77734 28.0839 10.9546 35.2361 20.9996 35.2361C22.8789 35.2339 24.749 34.9734 26.5573 34.4617L32.8554 38.4706C33.0273 38.5809 33.2258 38.6429 33.4299 38.6502C33.6341 38.6574 33.8364 38.6096 34.0158 38.5118C34.1951 38.414 34.3448 38.2698 34.4492 38.0942C34.5537 37.9186 34.6089 37.7182 34.6093 37.5139V29.8492C36.0343 28.4821 37.1715 26.8438 37.9538 25.0307C38.7362 23.2176 39.1479 21.2663 39.1648 19.2917C39.2218 10.4995 31.0446 3.34723 20.9996 3.34723ZM32.7187 28.5281C32.6042 28.6343 32.5128 28.7629 32.4501 28.9059C32.3874 29.0489 32.3548 29.2033 32.3543 29.3595V35.4411L27.366 32.2636C27.2268 32.1757 27.0702 32.1189 26.9071 32.0973C26.7439 32.0757 26.5779 32.0897 26.4207 32.1383C24.6653 32.6835 22.8376 32.96 20.9996 32.9583C12.2073 32.9583 5.05512 26.8311 5.05512 19.2917C5.05512 11.7522 12.2073 5.62501 20.9996 5.62501C29.7918 5.62501 36.944 11.7522 36.944 19.2917C36.918 21.04 36.5291 22.7638 35.8017 24.3538C35.0743 25.9438 34.0245 27.3652 32.7187 28.5281Z" fill="#FFFDF5"/>
<path d="M28.972 18.1528H13.0276C12.7255 18.1528 12.4358 18.2728 12.2222 18.4863C12.0087 18.6999 11.8887 18.9896 11.8887 19.2917C11.8887 19.5937 12.0087 19.8834 12.2222 20.097C12.4358 20.3106 12.7255 20.4305 13.0276 20.4305H28.972C29.2741 20.4305 29.5637 20.3106 29.7773 20.097C29.9909 19.8834 30.1109 19.5937 30.1109 19.2917C30.1109 18.9896 29.9909 18.6999 29.7773 18.4863C29.5637 18.2728 29.2741 18.1528 28.972 18.1528Z" fill="#FFFDF5"/>
<path d="M25.2704 23.8472H16.7287C16.4267 23.8472 16.137 23.9672 15.9234 24.1808C15.7098 24.3944 15.5898 24.6841 15.5898 24.9861C15.5898 25.2882 15.7098 25.5779 15.9234 25.7914C16.137 26.005 16.4267 26.125 16.7287 26.125H25.2704C25.5725 26.125 25.8621 26.005 26.0757 25.7914C26.2893 25.5779 26.4093 25.2882 26.4093 24.9861C26.4093 24.6841 26.2893 24.3944 26.0757 24.1808C25.8621 23.9672 25.5725 23.8472 25.2704 23.8472Z" fill="#FFFDF5"/>
<path d="M13.3469 14.7361H28.6536C28.9556 14.7361 29.2453 14.6161 29.4589 14.4025C29.6725 14.189 29.7925 13.8993 29.7925 13.5972C29.7925 13.2952 29.6725 13.0055 29.4589 12.7919C29.2453 12.5783 28.9556 12.4583 28.6536 12.4583H13.3469C13.0448 12.4583 12.7552 12.5783 12.5416 12.7919C12.328 13.0055 12.208 13.2952 12.208 13.5972C12.208 13.8993 12.328 14.189 12.5416 14.4025C12.7552 14.6161 13.0448 14.7361 13.3469 14.7361Z" fill="#FFFDF5"/>
</svg>
